<?xml version="1.0" encoding="UTF-8"?>
<svg id="Layer_2" data-name="Layer 2" xmlns="http://www.w3.org/2000/svg" viewBox="0 0 376 286.22">
  <defs>
    <style>
      .cls-1 {
        fill: #777;
      }

      .cls-1, .cls-2 {
        stroke-width: 0px;
      }

      .cls-2 {
        fill: #fff;
      }
    </style>
  </defs>
  <g id="Layer_1-2" data-name="Layer 1">
    <g>
      <path class="cls-1" d="m234.25,132.5c12.13,16.61,24.73,32.88,37.5,49l-79,103.5c-.46.06-4.86,2.71-8.5,0l-80-102.5c13.05-16.5,25.54-33.43,38.5-50v33.25l45.75,72.25,45.25-72.25.5-33.25Z"/>
      <path class="cls-2" d="m342.5,40c-7.6-6.13-37.26-37.91-42.25-40l.5,27.25,27.5,28-26.75,26.75-31.25-.75v-43.25l-20-.25c.12,18.43.06,26.82-.5,45.25l-20.5,6c-21.9-1.46-43.83-.92-65.75-1-3.76-.01-13.84,1.22-16.75,1-1.62-.12-18.16-4.5-19-5-.23-.14-1.45-1.11-1.5-1.25-.12-27.62-.12-17.62-.25-45.25l-19.75.75v43l-31.5.25-26-26.75,27.5-28V0l-42.25,40H0c4.93,5.15,9.76,10.41,14.75,15.5,9.11,9.28,34.29,34.97,41.5,41.5,2.41,2.18,4.82,4.35,7.25,6.5h64.75c1.71,5.48,11.89,21.32,14.5,29v33.25l45.75,72.25,45.25-72.25.5-33.25c1.09-4.75,11.39-23.39,15-29h63.75c2.68-3.27,6.17-5.69,9.25-8.5,6.83-6.25,32.51-32.22,40.5-40.5,4.51-4.67,8.77-9.78,13.25-14.5h-33.5Z"/>
    </g>
  </g>
</svg>